<svg xmlns="http://www.w3.org/2000/svg" viewBox="0 0 30 30">
  <title>Asset 1</title>
  <g id="Layer_2" data-name="Layer 2">
    <g id="Layer_1-2" data-name="Layer 1">
      <path fill="#6c6c7a" d="M25.64,21.05H15.91l5.92-9.89-5.7,0V9.1h9.55L19.9,18.77h5.74Zm-12.52-.41a6.28,6.28,0,0,1-2.82.64,6.32,6.32,0,0,1-2.49-.49,6.24,6.24,0,0,1-3.39-3.28,6,6,0,0,1-.5-2.43,6,6,0,0,1,.5-2.43,6.31,6.31,0,0,1,1.36-2,6.12,6.12,0,0,1,2-1.33,6.68,6.68,0,0,1,2.49-.47,6.15,6.15,0,0,1,2.82.64,6.68,6.68,0,0,1,2.13,1.67l-1.6,1.65a4.11,4.11,0,0,0-1.43-1.28,3.92,3.92,0,0,0-1.92-.49,3.81,3.81,0,0,0-1.57.33,4.15,4.15,0,0,0-1.3.86,4.48,4.48,0,0,0-.87,1.27,3.87,3.87,0,0,0-.32,1.55,3.78,3.78,0,0,0,.32,1.53,4.1,4.1,0,0,0,2.17,2.14,4,4,0,0,0,1.57.32,3.83,3.83,0,0,0,2-.5,4.51,4.51,0,0,0,1.42-1.33l1.61,1.66a6.58,6.58,0,0,1-2.17,1.74M15,0A15,15,0,1,0,30,15,15,15,0,0,0,15,0"/>
    </g>
  </g>
</svg>
