<svg xmlns="http://www.w3.org/2000/svg" xmlns:xlink="http://www.w3.org/1999/xlink" viewBox="0 0 39.93 48.67"><defs><style>.cls-1{fill:none;}.cls-2{clip-path:url(#clip-path);}.cls-3{fill:#231f20;}</style><clipPath id="clip-path" transform="translate(0 0)"><rect class="cls-1" width="39.93" height="48.67"/></clipPath></defs><title>Asset 1</title><g id="Layer_2" data-name="Layer 2"><g id="Layer_1-2" data-name="Layer 1"><g class="cls-2"><path class="cls-3" d="M14.1,40a.69.69,0,1,1,0-1.37H25.83a.69.69,0,0,1,0,1.37Z" transform="translate(0 0)"/><path class="cls-3" d="M14.1,42a.68.68,0,0,1-.69-.68.69.69,0,0,1,.69-.69H25.83a.68.68,0,0,1,.68.69.67.67,0,0,1-.68.68Z" transform="translate(0 0)"/><path class="cls-3" d="M14.1,44a.69.69,0,0,1-.69-.69.68.68,0,0,1,.69-.68H25.83a.67.67,0,0,1,.68.68.68.68,0,0,1-.68.69Z" transform="translate(0 0)"/><path class="cls-3" d="M14.9,46.07a.69.69,0,1,1,0-1.37H25a.69.69,0,1,1,0,1.37Z" transform="translate(0 0)"/><path class="cls-3" d="M16.66,46.73H23.5s-.24,1.94-3.42,1.94-3.42-1.94-3.42-1.94" transform="translate(0 0)"/><path class="cls-3" d="M20,0A19.78,19.78,0,0,1,34.08,5.9a20.23,20.23,0,0,1,0,28.46A19.9,19.9,0,0,1,26.87,39V37.75a19,19,0,0,0,6.37-31,18.67,18.67,0,0,0-26.55,0,19.06,19.06,0,0,0,0,26.79,18.8,18.8,0,0,0,6.36,4.23V39A20.11,20.11,0,0,1,0,20.13,20.11,20.11,0,0,1,5.85,5.9,19.78,19.78,0,0,1,20,0" transform="translate(0 0)"/><path class="cls-3" d="M14.57,15.93a.68.68,0,0,0-.68.68.69.69,0,1,0,.68-.68m0,2.1A1.42,1.42,0,1,1,16,16.61,1.42,1.42,0,0,1,14.57,18" transform="translate(0 0)"/><path class="cls-3" d="M6,19.56a.59.59,0,1,0,.6.59.59.59,0,0,0-.6-.59m0,1.91a1.32,1.32,0,1,1,1.33-1.32A1.32,1.32,0,0,1,6,21.47" transform="translate(0 0)"/><path class="cls-3" d="M9.23,19.7a.45.45,0,1,0,.45.45.45.45,0,0,0-.45-.45m0,1.54a1.09,1.09,0,1,1,1.09-1.09,1.09,1.09,0,0,1-1.09,1.09" transform="translate(0 0)"/><path class="cls-3" d="M6.23,15.16a.4.4,0,0,0,0,.8.4.4,0,1,0,0-.8m0,1.53a1.13,1.13,0,1,1,1.14-1.13,1.13,1.13,0,0,1-1.14,1.13" transform="translate(0 0)"/><path class="cls-3" d="M12.76,9.24a.49.49,0,0,0-.5.49.5.5,0,1,0,1,0,.49.49,0,0,0-.49-.49m0,1.72A1.23,1.23,0,1,1,14,9.73,1.23,1.23,0,0,1,12.76,11" transform="translate(0 0)"/><path class="cls-3" d="M9.27,11.13a.5.5,0,1,0,.5.5.49.49,0,0,0-.5-.5m0,1.72a1.23,1.23,0,1,1,1.23-1.22,1.22,1.22,0,0,1-1.23,1.22" transform="translate(0 0)"/><path class="cls-3" d="M17.78,6.48a.47.47,0,1,0,.47.47.47.47,0,0,0-.47-.47m0,1.4A.93.93,0,1,1,18.71,7a.93.93,0,0,1-.93.93" transform="translate(0 0)"/><path class="cls-3" d="M11.4,13.85a.47.47,0,1,0,.47.46.47.47,0,0,0-.47-.46m0,1.39a.93.93,0,1,1,.93-.93.93.93,0,0,1-.93.93" transform="translate(0 0)"/><path class="cls-3" d="M8.19,22.3a.34.34,0,1,0,0,.67.34.34,0,0,0,0-.67m0,1a.7.7,0,1,1,.7-.7.7.7,0,0,1-.7.7" transform="translate(0 0)"/><path class="cls-3" d="M14.31,22.18a.47.47,0,1,0,.47.47.47.47,0,0,0-.47-.47m0,1.4a.93.93,0,1,1,.93-.93.93.93,0,0,1-.93.93" transform="translate(0 0)"/><path class="cls-3" d="M25.4,16a.67.67,0,0,0-.68.68.68.68,0,0,0,.68.69.69.69,0,0,0,.69-.69A.68.68,0,0,0,25.4,16m0,2.1a1.42,1.42,0,1,1,1.42-1.42,1.42,1.42,0,0,1-1.42,1.42" transform="translate(0 0)"/><path class="cls-3" d="M33.89,15a1.21,1.21,0,0,1,1.2,1.21,1.18,1.18,0,0,1-.35.85,1.2,1.2,0,0,1-1.71,0,1.22,1.22,0,0,1-.35-.85,1.24,1.24,0,0,1,.35-.85,1.21,1.21,0,0,1,.86-.36m.4.8a.56.56,0,0,0-.4-.16.6.6,0,0,0-.41.16.58.58,0,0,0,0,.82.6.6,0,0,0,.41.16.56.56,0,0,0,.4-.16.58.58,0,0,0,0-.82" transform="translate(0 0)"/><path class="cls-3" d="M34.91,19.76a.58.58,0,0,0-.57.57.57.57,0,0,0,.57.56.56.56,0,0,0,.56-.56.57.57,0,0,0-.56-.57m0,1.82a1.25,1.25,0,1,1,1.24-1.25,1.25,1.25,0,0,1-1.24,1.25" transform="translate(0 0)"/><path class="cls-3" d="M33.92,22.86a.56.56,0,1,0,.55.55.55.55,0,0,0-.55-.55m0,1.65a1.1,1.1,0,1,1,1.1-1.1,1.1,1.1,0,0,1-1.1,1.1" transform="translate(0 0)"/><path class="cls-3" d="M28.42,12.49a.59.59,0,1,0,.59.58.58.58,0,0,0-.59-.58m0,1.72a1.14,1.14,0,1,1,1.14-1.14,1.14,1.14,0,0,1-1.14,1.14" transform="translate(0 0)"/><path class="cls-3" d="M30.14,10a.59.59,0,1,0,.59.58.58.58,0,0,0-.59-.58m0,1.72a1.14,1.14,0,1,1,1.14-1.14,1.14,1.14,0,0,1-1.14,1.14" transform="translate(0 0)"/><path class="cls-3" d="M12.82,27.17a.28.28,0,0,0-.28.28.29.29,0,1,0,.57,0,.28.28,0,0,0-.29-.28m0,1a.75.75,0,0,1-.74-.75.75.75,0,0,1,1.49,0,.75.75,0,0,1-.75.75" transform="translate(0 0)"/><path class="cls-3" d="M6.79,22.09a.55.55,0,1,1-.55.55.55.55,0,0,1,.55-.55" transform="translate(0 0)"/><path class="cls-3" d="M9.58,22.09a.55.55,0,1,1-.54.55.54.54,0,0,1,.54-.55" transform="translate(0 0)"/><path class="cls-3" d="M14.38,19.57a.65.65,0,1,1-.65.65.65.65,0,0,1,.65-.65" transform="translate(0 0)"/><path class="cls-3" d="M16,20.78a.66.66,0,0,1,.65.66.65.65,0,1,1-1.3,0,.66.66,0,0,1,.65-.66" transform="translate(0 0)"/><path class="cls-3" d="M17.83,23.87a.54.54,0,0,1,.54.54.54.54,0,0,1-1.08,0,.54.54,0,0,1,.54-.54" transform="translate(0 0)"/><path class="cls-3" d="M26.46,29.21a.54.54,0,1,1-.53.54.54.54,0,0,1,.53-.54" transform="translate(0 0)"/><path class="cls-3" d="M31.46,28.63a.66.66,0,1,1-.66.66.66.66,0,0,1,.66-.66" transform="translate(0 0)"/><path class="cls-3" d="M23.22,19.29a.71.71,0,1,1-.71.71.71.71,0,0,1,.71-.71" transform="translate(0 0)"/><path class="cls-3" d="M22.22,6.41a.37.37,0,0,0-.37.36.38.38,0,0,0,.37.37.37.37,0,0,0,.36-.37.36.36,0,0,0-.36-.36m0,1.18a.82.82,0,1,1,0-1.64.82.82,0,0,1,0,1.64" transform="translate(0 0)"/><path class="cls-3" d="M31.83,11.59a.71.71,0,1,1-.71.71.71.71,0,0,1,.71-.71" transform="translate(0 0)"/><path class="cls-3" d="M32.54,20.88a.71.71,0,1,1-.71.71.71.71,0,0,1,.71-.71" transform="translate(0 0)"/><path class="cls-3" d="M9.16,28.91a.55.55,0,0,1,.55.54.55.55,0,0,1-1.1,0,.55.55,0,0,1,.55-.54" transform="translate(0 0)"/><path class="cls-3" d="M8.61,31.4a.55.55,0,1,1-.54.55.55.55,0,0,1,.54-.55" transform="translate(0 0)"/><path class="cls-3" d="M12.46,32.73a.69.69,0,1,0,.68.68.68.68,0,0,0-.68-.68m0,2.1a1.42,1.42,0,1,1,0-2.83,1.42,1.42,0,0,1,0,2.83" transform="translate(0 0)"/><path class="cls-3" d="M6.56,27.08a1,1,0,0,1,1,1,1,1,0,0,1-.29.71,1,1,0,0,1-1.42,0,1,1,0,0,1-.29-.71,1,1,0,0,1,1-1m.34.66a.47.47,0,0,0-.34-.15.49.49,0,0,0-.34.15.44.44,0,0,0-.14.34.48.48,0,0,0,.48.48.46.46,0,0,0,.34-.14A.48.48,0,0,0,7,28.08a.44.44,0,0,0-.14-.34" transform="translate(0 0)"/><path class="cls-3" d="M24.87,28.92a.83.83,0,1,1-.83.83.83.83,0,0,1,.83-.83" transform="translate(0 0)"/></g><rect class="cls-3" x="14.39" y="30.63" width="0.64" height="7.17"/><rect class="cls-3" x="15.91" y="29.75" width="0.64" height="8.04"/><polygon class="cls-3" points="18.02 37.8 17.38 37.8 17.38 27.19 15.52 24.91 13.34 24.91 13.34 24.27 15.83 24.27 18.02 26.96 18.02 37.8"/><rect class="cls-3" x="18.81" y="6.18" width="0.64" height="31.61"/><rect class="cls-3" x="20.26" y="12.3" width="0.64" height="25.49"/><polygon class="cls-3" points="22.34 37.8 21.7 37.8 21.7 27.68 26.38 23 26.38 19.38 27.77 17.99 27.77 15.43 27.12 15.8 25.82 14.51 26.27 14.05 27.22 15.01 28.41 14.32 28.41 18.25 27.02 19.64 27.02 23.27 22.34 27.95 22.34 37.8"/><polygon class="cls-3" points="23.74 37.8 23.1 37.8 23.1 28.29 27.5 23.59 27.5 20.2 28.81 18.89 28.81 15.09 32.01 12.2 32.44 12.67 29.45 15.38 29.45 19.15 28.14 20.46 28.14 23.84 23.74 28.54 23.74 37.8"/><rect class="cls-3" x="24.82" y="32.04" width="0.64" height="5.75"/><polygon class="cls-3" points="22.16 20.98 21.52 20.98 21.52 15.14 23.7 12.96 23.7 11.33 24.34 11.33 24.34 13.23 22.16 15.41 22.16 20.98"/><polygon class="cls-3" points="23.54 20.14 22.9 20.14 22.9 15.14 25.08 12.96 25.08 10.78 25.72 10.78 25.72 13.22 23.54 15.41 23.54 20.14"/><polygon class="cls-3" points="20.69 10.74 20.24 10.29 23.17 7.36 23.17 5.91 23.81 5.91 23.81 7.63 20.69 10.74"/><polygon class="cls-3" points="26.62 13.2 25.98 13.2 25.98 12.17 27.1 11.05 27.1 9.37 25.24 7.95 22.32 10.86 21.87 10.41 25.18 7.1 27.74 9.05 27.74 11.32 26.62 12.44 26.62 13.2"/><g class="cls-2"><path class="cls-3" d="M27.35,9.55a.21.21,0,0,1-.16-.07.22.22,0,0,1,0-.32l.95-.95a.23.23,0,0,1,.32.32l-.95,1a.2.2,0,0,1-.16.07" transform="translate(0 0)"/><path class="cls-3" d="M25.7,27.12a.83.83,0,1,1-.83.83.83.83,0,0,1,.83-.83" transform="translate(0 0)"/></g><polygon class="cls-3" points="29.18 31.25 25.24 27.31 28.82 23.73 28.82 21.1 30.02 19.91 30.02 15.84 33.47 12.39 33.92 12.85 30.66 16.11 30.66 20.17 29.46 21.37 29.46 24 26.14 27.31 29.18 30.35 30 29.52 30.45 29.98 29.18 31.25"/><rect class="cls-3" x="27.82" y="27.49" width="5.11" height="0.64"/><rect class="cls-3" x="27.39" y="26.46" width="6.76" height="0.64"/><rect class="cls-3" x="28.45" y="25.21" width="2.05" height="0.45"/><rect class="cls-3" x="31.83" y="25.21" width="2.83" height="0.45"/><polygon class="cls-3" points="30.55 23.81 30 23.81 30 21.85 31.41 20.44 31.41 15.99 33.68 13.72 34.06 14.11 31.95 16.21 31.95 20.67 30.55 22.07 30.55 23.81"/><polygon class="cls-3" points="33.14 21.59 32.5 21.59 32.5 18.56 32.84 17.98 34.98 17.98 35.77 17.19 36.22 17.64 35.25 18.61 33.21 18.61 33.14 18.73 33.14 21.59"/><rect class="cls-3" x="30.27" y="22.95" width="2.12" height="0.45"/><polygon class="cls-3" points="21.85 26.69 21.4 26.24 25.11 22.53 25.11 18.62 25.74 18.62 25.74 22.79 21.85 26.69"/><rect class="cls-3" x="20.18" y="23.72" width="3.23" height="0.64" transform="translate(-10.61 22.45) rotate(-45)"/><g class="cls-2"><path class="cls-3" d="M27.53,33.3h-.17c-3.26,0-3.83-2.27-3.85-2.37l1.06-.25c0,.06.43,1.53,2.82,1.53.05,0,3.1.09,4.89-1.64a4.57,4.57,0,0,0,1.32-3.44v-.37l.35-.14a2.8,2.8,0,0,0,1.51-3.34L35.4,23l.24-.2a3.78,3.78,0,0,0,1.2-2.37,3.52,3.52,0,0,0-1.16-2.59l-.22-.24.1-.31a3.14,3.14,0,0,0-2-4.11l-.4-.13,0-.43A4,4,0,0,0,32.28,10a3.53,3.53,0,0,0-2.61-1h-.32l-.15-.3a3.5,3.5,0,0,0-3.87-1.82L25,6.87l-.21-.3s-.89-1.24-2-1.24h0a2.21,2.21,0,0,0-1.67,1.1V8.85H20V6.08l.1-.14a3.35,3.35,0,0,1,2.68-1.71h0a3.71,3.71,0,0,1,2.62,1.43A4.56,4.56,0,0,1,30,7.84a4.46,4.46,0,0,1,3.07,1.4,4.86,4.86,0,0,1,1.14,3,4.15,4.15,0,0,1,2.45,5,4.43,4.43,0,0,1,1.24,3.18,4.79,4.79,0,0,1-1.35,2.92,3.89,3.89,0,0,1-1.9,4.1A5.51,5.51,0,0,1,33,31.36a8.45,8.45,0,0,1-5.5,1.94" transform="translate(0 0)"/><path class="cls-3" d="M29.28,32.68a4.69,4.69,0,0,1-4.14-2.29l.41-.2a4.28,4.28,0,0,0,3.75,2Z" transform="translate(0 0)"/></g><polygon class="cls-3" points="16.04 21.78 15.65 21.4 17.51 19.54 17.51 8.21 18.05 8.21 18.05 19.77 16.04 21.78"/><polygon class="cls-3" points="16.63 14.25 12.68 14.25 12.68 13.61 15.99 13.61 15.99 5.91 16.63 5.91 16.63 14.25"/><rect class="cls-3" x="14.89" y="22.76" width="3.37" height="0.46"/><polygon class="cls-3" points="14.63 21.83 13.99 21.83 13.99 20.03 16.32 17.7 16 13.82 16.63 13.77 16.98 17.95 14.63 20.29 14.63 21.83"/><g class="cls-2"><path class="cls-3" d="M16.11,22.45a.54.54,0,0,1,.54.54.54.54,0,1,1-1.08,0,.54.54,0,0,1,.54-.54" transform="translate(0 0)"/><path class="cls-3" d="M17.83,22.45a.54.54,0,0,1,.54.54.54.54,0,1,1-1.08,0,.54.54,0,0,1,.54-.54" transform="translate(0 0)"/></g><rect class="cls-3" x="15.96" y="21.63" width="3.35" height="0.46"/><polygon class="cls-3" points="15.53 28.65 12.07 25.2 12.07 19.3 10.21 17.44 10.66 16.98 12.71 19.04 12.71 24.93 15.98 28.2 15.53 28.65"/><polygon class="cls-3" points="11.51 26.43 10.87 26.43 10.87 19.77 8.93 17.83 4.31 17.83 4.31 17.19 9.2 17.19 11.51 19.51 11.51 26.43"/><rect class="cls-3" x="7.75" y="16.01" width="4.72" height="0.64"/><rect class="cls-3" x="7.4" y="12.37" width="0.64" height="3.26" transform="translate(-6.98 7.7) rotate(-37.93)"/><polygon class="cls-3" points="15.25 12.89 12.3 12.89 10.94 11.54 11.39 11.09 12.56 12.25 14.61 12.25 14.61 6.45 15.25 6.45 15.25 12.89"/><rect class="cls-3" x="8.94" y="14.09" width="1.77" height="0.46"/><g class="cls-2"><path class="cls-3" d="M15,30.79l-.3,0a7.45,7.45,0,0,1-4.7-3,4.52,4.52,0,0,1-.88-2.5,4,4,0,0,1-4.35-1.36,4.87,4.87,0,0,1-2.14-3,4.85,4.85,0,0,1,1.11-3.82,3.65,3.65,0,0,1,.06-2.59,4,4,0,0,1,2.44-2.07A5.17,5.17,0,0,1,7.26,9.28,4.67,4.67,0,0,1,10.45,7.7a3.7,3.7,0,0,1,4.1-2.07,3.52,3.52,0,0,1,2.23-1.29,2.43,2.43,0,0,1,2.67,1.84h-.64a2.33,2.33,0,0,0-1.91-.75,2.7,2.7,0,0,0-1.69,1.13L15,6.9l-.39-.12c-2.25-.73-3.24,1.55-3.28,1.65l-.13.3-.33,0A3.76,3.76,0,0,0,8.11,10a4.21,4.21,0,0,0-.81,2.81l0,.44-.43.14A3.22,3.22,0,0,0,4.75,15a2.68,2.68,0,0,0,.06,2l.15.31-.22.27a4,4,0,0,0-1.08,3.18A3.83,3.83,0,0,0,5.36,23l.08,0,.06.07a3,3,0,0,0,3.92.8l1.14-.71-.32,1.3a3.14,3.14,0,0,0,.6,2.61,6.33,6.33,0,0,0,3.93,2.53,1,1,0,0,0,.85-.22,2.43,2.43,0,0,0,.48-1.63l1.09-.06a3.44,3.44,0,0,1-.82,2.49,2,2,0,0,1-1.42.53" transform="translate(0 0)"/><path class="cls-3" d="M16.1,27.85c0-.1-1.38-2-1.38-2l2.48,1.94L17,28Z" transform="translate(0 0)"/><path class="cls-3" d="M21.49,11.08a1.23,1.23,0,0,1,.86.36h0a1.22,1.22,0,0,1,0,1.73h0a1.22,1.22,0,1,1-1.73-1.73h0a1.23,1.23,0,0,1,.87-.36m.35.87a.5.5,0,0,0-.35-.14.47.47,0,0,0-.35.14h0a.51.51,0,0,0-.15.35.51.51,0,0,0,.5.5.51.51,0,0,0,.35-.15h0A.47.47,0,0,0,22,12.3a.5.5,0,0,0-.14-.35Z" transform="translate(0 0)"/><path class="cls-3" d="M31.13,24.77a.52.52,0,1,0,.52.51.51.51,0,0,0-.52-.51m0,1.39a.88.88,0,1,1,.88-.88.88.88,0,0,1-.88.88" transform="translate(0 0)"/><path class="cls-3" d="M23.28,21.87a.52.52,0,1,0,.51.52.52.52,0,0,0-.51-.52m0,1.4a.88.88,0,1,1,.88-.88.88.88,0,0,1-.88.88" transform="translate(0 0)"/><path class="cls-3" d="M25.4,9.35a.59.59,0,0,0,0,1.17.59.59,0,1,0,0-1.17m0,1.72a1.14,1.14,0,1,1,1.14-1.13,1.14,1.14,0,0,1-1.14,1.13" transform="translate(0 0)"/><path class="cls-3" d="M29.87,28.55a.83.83,0,1,1-.83.83.83.83,0,0,1,.83-.83" transform="translate(0 0)"/></g></g></g></svg>