<svg version="1.1" id="Layer_1" xmlns="http://www.w3.org/2000/svg" xmlns:xlink="http://www.w3.org/1999/xlink" viewBox="0 0 485 485" xml:space="preserve" fill="#000000"><g id="SVGRepo_bgCarrier" stroke-width="0"></g><g id="SVGRepo_tracerCarrier" stroke-linecap="round" stroke-linejoin="round"></g><g id="SVGRepo_iconCarrier"> <g> <g> <rect x="42.5" y="281.125" style="fill:#a77b00;" width="200" height="50"></rect> <rect x="387.5" y="46.125" style="fill:#666;" width="40" height="50"></rect> <rect x="387.5" y="96.125" style="fill:#66666;" width="40" height="150"></rect> <rect x="27.5" y="366.125" style="fill:#66666;" width="430" height="40"></rect> <path style="fill:#666;" d="M477.5,246.125v120h-20h-430h-20v-120h380h40H477.5z M242.5,331.125v-50h-200v50H242.5z"></path> </g> <g> <path style="fill:#231F20;" d="M485,238.625h-50v-200h-55v200H0v135h20v40h29.5v32.75h15v-32.75h364v32.75h15v-32.75H465v-40h20 V238.625z M420,53.625v35h-25v-35H420z M395,103.625h25v135h-25V103.625z M450,398.625H35v-25h415V398.625z M470,358.625H15v-105 h455V358.625z"></path> <path style="fill:#231F20;" d="M250,273.625H35v65h215V273.625z M50,288.625h139v35H50V288.625z M235,323.625h-31v-35h31V323.625z "></path> <rect x="435" y="271.125" style="fill:#231F20;" width="15" height="70"></rect> <rect x="395" y="271.125" style="fill:#231F20;" width="15" height="70"></rect> <rect x="355" y="271.125" style="fill:#231F20;" width="15" height="70"></rect> <rect x="315" y="271.125" style="fill:#231F20;" width="15" height="70"></rect> <rect x="275" y="271.125" style="fill:#231F20;" width="15" height="70"></rect> </g> </g> </g></svg>