<svg xmlns="http://www.w3.org/2000/svg" viewBox="0 0 20 17.65"><defs><style>.cls-1{fill:#231f20;}</style></defs><title>Asset 13</title><g id="Layer_2" data-name="Layer 2"><g id="Layer_1-2" data-name="Layer 1"><path class="cls-1" d="M10.21,6.56,0,0V4.32L6.13,8.13a4.47,4.47,0,0,0,.93.46q.48.16.78.24a4.49,4.49,0,0,0-.78.25,4.51,4.51,0,0,0-.93.47L0,13.37v4.28l10.21-6.59Z"/><path class="cls-1" d="M9.79,0V4.32l6.13,3.81a4.47,4.47,0,0,0,.93.46c.32.11.58.19.77.24a4.72,4.72,0,0,0-.77.25,4.51,4.51,0,0,0-.93.47L9.79,13.37v4.28L20,11.06V6.56Z"/></g></g></svg>